<?xml version="1.0" encoding="utf-8"?>
<!-- Generator: Adobe Illustrator 19.2.1, SVG Export Plug-In . SVG Version: 6.00 Build 0)  -->
<svg version="1.1" id="Layer_1" xmlns="http://www.w3.org/2000/svg" xmlns:xlink="http://www.w3.org/1999/xlink" x="0px" y="0px"
	 viewBox="0 0 393.4 393.4" style="enable-background:new 0 0 393.4 393.4;" xml:space="preserve">
<g>
	<path d="M196.7,13.3C95.4,13.3,13.3,95.4,13.3,196.7s82.1,183.4,183.4,183.4S380.1,298,380.1,196.7S298,13.3,196.7,13.3z
		 M196.7,368.5c-5,0-9-4-9-9c0-5,4-9,9-9c5,0,9,4,9,9C205.7,364.4,201.7,368.5,196.7,368.5z M233.1,151.4c2.4-2.4,6.4-2.4,8.8,0
		s2.4,6.4,0,8.8c-2.4,2.4-6.4,2.4-8.8,0C230.7,157.8,230.7,153.9,233.1,151.4z M196.7,132.7c3.5,0,6.3,2.8,6.3,6.3s-2.8,6.3-6.3,6.3
		s-6.3-2.8-6.3-6.3S193.2,132.7,196.7,132.7z M151.4,151.4c2.4-2.4,6.4-2.4,8.8,0c2.4,2.4,2.4,6.4,0,8.8c-2.4,2.4-6.4,2.4-8.8,0
		C149,157.8,149,153.9,151.4,151.4z M138.9,202.9c-3.5,0-6.3-2.8-6.3-6.3s2.8-6.3,6.3-6.3s6.3,2.8,6.3,6.3S142.4,202.9,138.9,202.9z
		 M160.3,241.9c-2.4,2.4-6.4,2.4-8.8,0c-2.4-2.4-2.4-6.4,0-8.8c2.4-2.4,6.4-2.4,8.8,0C162.7,235.5,162.7,239.5,160.3,241.9z
		 M196.7,260.7c-3.5,0-6.3-2.8-6.3-6.3s2.8-6.3,6.3-6.3s6.3,2.8,6.3,6.3C202.9,257.9,200.1,260.7,196.7,260.7z M241.9,241.9
		c-2.4,2.4-6.4,2.4-8.8,0c-2.4-2.4-2.4-6.4,0-8.8c2.4-2.4,6.4-2.4,8.8,0C244.4,235.5,244.4,239.5,241.9,241.9z M231.4,231.4
		c-8.9,8.9-21.1,14.4-34.7,14.4s-25.8-5.5-34.7-14.4c-8.9-8.9-14.4-21.1-14.4-34.7c0-13.5,5.5-25.8,14.4-34.7
		c8.9-8.9,21.1-14.4,34.7-14.4s25.8,5.5,34.7,14.4c8.9,8.9,14.4,21.1,14.4,34.7S240.3,222.5,231.4,231.4z M254.4,202.9
		c-3.5,0-6.3-2.8-6.3-6.3s2.8-6.3,6.3-6.3c3.5,0,6.3,2.8,6.3,6.3C260.7,200.1,257.9,202.9,254.4,202.9z"/>
	<path d="M196.7,149.8c-13,0-24.7,5.3-33.2,13.7c-8.5,8.5-13.7,20.2-13.7,33.2s5.3,24.7,13.7,33.2s20.2,13.7,33.2,13.7
		c13,0,24.7-5.3,33.2-13.7c8.5-8.5,13.7-20.2,13.7-33.2s-5.3-24.7-13.7-33.2S209.6,149.8,196.7,149.8z M239.7,210.7
		c-5.9,18.1-22.9,31.3-43.1,31.3s-37.2-13.1-43.1-31.3c3.3,0.3,7.9,0,13.8-0.9c5,11.1,16.2,18.9,29.2,18.9s24.2-7.8,29.2-18.9
		C231.8,210.7,236.4,211,239.7,210.7z"/>
</g>
<path d="M332.8,60.6C297.9,25.8,249.8,4.3,196.7,4.3c-53.1,0-101.2,21.5-136.1,56.4C25.8,95.4,4.3,143.5,4.3,196.7
	c0,53.1,21.5,101.2,56.4,136.1s82.9,56.4,136.1,56.4s101.2-21.5,136.1-56.4c34.8-34.8,56.4-82.9,56.4-136.1
	C389.1,143.5,367.6,95.4,332.8,60.6 M196.7,0C251,0,300.2,22,335.8,57.6c35.6,35.6,57.6,84.8,57.6,139.1c0,54.3-22,103.5-57.6,139.1
	s-84.8,57.6-139.1,57.6c-54.3,0-103.5-22-139.1-57.6C22,300.2,0,251,0,196.7C0,142.4,22,93.2,57.6,57.6S142.4,0,196.7,0z"/>
</svg>
