<?xml version="1.0" encoding="utf-8"?>
<!-- Generator: Adobe Illustrator 19.2.1, SVG Export Plug-In . SVG Version: 6.00 Build 0)  -->
<svg version="1.1" id="Layer_1" xmlns="http://www.w3.org/2000/svg" xmlns:xlink="http://www.w3.org/1999/xlink" x="0px" y="0px"
	 viewBox="0 0 334.8 317.7" style="enable-background:new 0 0 334.8 317.7;" xml:space="preserve">
<style type="text/css">
	.st0{fill:none;}
	.st1{fill:#1A1A18;}
	.st2{fill:#FFFFFF;}
</style>
<g>
	<path class="st0" d="M232.6,56.5C206,33,172.2,21.2,137.3,23.3C63.6,27.7,7.2,93.5,11.7,169.8c2.2,37.9,18.8,72.3,46.7,97
		c24.5,21.8,55.3,33.5,87.3,33.5c2.6,0,5.3-0.1,8-0.2c73.8-4.5,130.1-70.2,125.6-146.5C277,115.7,260.4,81.3,232.6,56.5z
		 M153.6,299.5c-34.7,2.1-68.4-9.7-94.8-33.1c-27.7-24.6-44.2-58.9-46.5-96.7C7.8,93.7,63.9,28.3,137.4,23.8
		c34.7-2.1,68.4,9.7,94.8,33.1c27.7,24.6,44.3,58.9,46.5,96.7C283.1,229.6,227,295.1,153.6,299.5z"/>
	<path class="st0" d="M173.1,3.1l-1.7,0.1c0.1,0,0.2,0,0.3,0c0.8,0.1,1.7,0.2,2.5,0.4c0.2,0,0.3,0,0.5,0.1
		c18,2.7,35.4,8.8,51.4,17.9c0.1,0.1,0.3,0.2,0.4,0.2c0.8,0.4,1.5,0.9,2.3,1.3c0.2,0.1,0.4,0.3,0.7,0.4c0.7,0.4,1.4,0.8,2.1,1.3
		c0.3,0.2,0.6,0.4,0.8,0.5c0.9,0.6,1.9,1.2,2.8,1.8c0.6,0.4,1.2,0.8,1.8,1.2c0.4,0.2,0.7,0.5,1.1,0.7c0.6,0.4,1.2,0.9,1.8,1.3
		c0.3,0.2,0.7,0.5,1,0.7c0.7,0.5,1.3,1,1.9,1.4c0.3,0.2,0.6,0.4,0.8,0.6c0.7,0.6,1.5,1.1,2.2,1.7c0.2,0.2,0.4,0.3,0.6,0.5
		c1.9,1.5,3.7,3.1,5.5,4.7L252,40c0.1,0.1,0.3,0.2,0.4,0.3c0.7,0.6,1.4,1.3,2.1,1.9c0.4,0.3,0.7,0.7,1.1,1c0.5,0.4,0.9,0.9,1.4,1.3
		c0.5,0.5,1,1,1.5,1.4l0.1,0.1c0.1,0.1,0.2,0.2,0.3,0.3c25,25,40.8,57.3,45.3,92.9c0,0.2,0,0.3,0.1,0.5c0.1,1,0.3,2.1,0.4,3.1
		c0.1,0.5,0.1,1,0.1,1.5c0.1,0.7,0.1,1.5,0.2,2.2c0.1,1.3,0.2,2.6,0.3,3.8c0.1,1.4,0.1,2.9,0.2,4.3c0,0.2,0,0.5,0,0.7
		c0,1.2,0.1,2.5,0.1,3.7c0,0.1,0,0.2,0,0.4c0.1,29.5-7.7,57.3-21.4,81.1c-0.4,0.7-0.8,1.3-1.1,1.9c-0.2,0.4-0.4,0.7-0.7,1.1
		c-6.8,11.3-15,21.7-24.4,30.9l18.5-12.2c37.7-29.6,58.5-75.3,55.6-122.3C326.7,59.9,255.6-1.6,173.1,3.1z"/>
	<path class="st1" d="M232.2,57c-26.4-23.5-60.1-35.2-94.8-33.1C63.9,28.3,7.8,93.7,12.2,169.7c2.2,37.7,18.7,72,46.5,96.7
		c26.4,23.5,60.1,35.2,94.8,33.1c73.5-4.4,129.6-69.9,125.1-145.9C276.5,115.9,260,81.6,232.2,57z M151.2,127.4
		c0.7-1,1.7-1.7,2.9-1.9c1.2-0.2,2.4,0.1,3.3,0.9c2,1.6,2.4,4.6,1,6.7c-0.7,1-1.7,1.7-2.9,1.9c-0.2,0-0.4,0-0.6,0
		c-1,0-1.9-0.3-2.7-1C150.3,132.5,149.8,129.5,151.2,127.4z M125.4,117.6c1.2-0.2,2.4,0.1,3.3,0.9c1,0.8,1.6,1.9,1.8,3.1
		c0.4,2.6-1.2,5-3.7,5.4c-0.2,0-0.4,0-0.6,0c-1,0-1.9-0.3-2.7-1c-1-0.8-1.6-1.9-1.8-3.1C121.4,120.4,123,118,125.4,117.6z
		 M97.6,135.7c0.7-1,1.7-1.7,2.9-1.9c1.2-0.2,2.4,0.1,3.3,0.9c2,1.6,2.4,4.6,1,6.7c-0.7,1-1.7,1.7-2.9,1.9c-0.2,0-0.4,0-0.6,0
		c-1,0-1.9-0.3-2.7-1C96.6,140.8,96.2,137.8,97.6,135.7z M95.3,174.1c-0.2,0-0.4,0-0.6,0c-1,0-1.9-0.3-2.7-1c-1-0.8-1.6-1.9-1.8-3.1
		c-0.4-2.6,1.2-5,3.7-5.4c2.4-0.4,4.7,1.4,5.1,4.1C99.4,171.3,97.8,173.8,95.3,174.1z M113.8,199.6c-0.7,1-1.7,1.7-2.9,1.9
		c-0.2,0-0.4,0-0.6,0c-1,0-1.9-0.3-2.7-1c-2-1.6-2.4-4.6-1-6.7c0.7-1,1.7-1.7,2.9-1.9c1.2-0.2,2.4,0.1,3.3,0.9
		C114.8,194.5,115.3,197.5,113.8,199.6z M139.6,209.4c-0.2,0-0.4,0-0.6,0c-1,0-1.9-0.3-2.7-1c-1-0.8-1.6-1.9-1.8-3.1
		c-0.4-2.6,1.2-5,3.7-5.4c1.2-0.2,2.4,0.1,3.3,0.9c1,0.8,1.6,1.9,1.8,3.1C143.7,206.6,142,209,139.6,209.4z M138,198.8
		c-1.6,0.2-3.1,0.4-4.7,0.4c-7,0-13.9-2.4-19.7-7.1c-7.1-5.7-11.8-13.9-13.2-23.2c-3-19.3,9.1-37.2,26.8-39.9
		c8.6-1.3,17.3,1.1,24.4,6.7c7.1,5.7,11.8,13.9,13.2,23.2C167.8,178.2,155.8,196.1,138,198.8z M167.5,191.3c-0.7,1-1.7,1.7-2.9,1.9
		c-0.2,0-0.4,0-0.6,0c-1,0-1.9-0.3-2.7-1c-2-1.6-2.4-4.6-1-6.7c0.7-1,1.7-1.7,2.9-1.9s2.4,0.1,3.3,0.9
		C168.4,186.2,168.9,189.2,167.5,191.3z M171.2,162.4c-0.2,0-0.4,0-0.6,0c-2.2,0-4.1-1.7-4.5-4.1c-0.4-2.6,1.2-5,3.7-5.4
		c1.2-0.2,2.4,0.1,3.3,0.9c1,0.8,1.6,1.9,1.8,3.1C175.2,159.6,173.6,162,171.2,162.4z"/>
	<style type="text/css">
	.fillpulse {
		animation: fillpulse 5s infinite;
	}

	@keyframes fillpulse {
		20%, 80% {
			fill: #0078CC;
		}
		0%, 100% {
			fill: #1A1A18;
		}
	}

	.ledpulse {
		animation: ledpulse 5s infinite;
	}

	@keyframes ledpulse {
		50%, 70% {
			fill: #96CC00;
		}
		45%, 55%, 65%, 75% {
			fill: white;
		}
	}
	</style>
	<path class="fillpulse st1" d="M150.7,136.8c-6.8-5.4-15.1-7.7-23.3-6.4c-17,2.6-28.5,19.8-25.6,38.3c1.4,9,5.9,16.9,12.7,22.3
		c6.8,5.4,15.1,7.7,23.3,6.4c17-2.6,28.5-19.8,25.6-38.3C162,150.2,157.5,142.2,150.7,136.8z M162.6,169.5
		c-1.9,14-12,24.8-24.9,26.8c-1.4,0.2-2.9,0.3-4.3,0.3c-11.4,0-22.1-7-27.5-18.3l-0.1-0.2h0.2c2.2-0.1,5.2-0.8,8.9-2h0.1l0.1,0.1
		c4.6,7.6,12.9,11.7,21.1,10.4c8.2-1.3,14.9-7.7,17-16.3v-0.1h0.1c4,0.1,7-0.2,9.1-0.8l0.2-0.1L162.6,169.5z"/>
	<path class="st1" d="M244.4,46.4C215.8,21,179.3,8.3,141.7,10.5C62.2,15.4,1.5,86.2,6.3,168.4c2.4,40.8,20.3,78,50.3,104.6
		c28.6,25.4,65.1,38.1,102.6,35.8c79.5-4.8,140.2-75.6,135.4-157.9C292.3,110.2,274.4,73,244.4,46.4z M153.6,300.1
		c-2.7,0.2-5.3,0.2-8,0.2c-32,0-62.8-11.7-87.3-33.5c-27.9-24.7-44.4-59.2-46.7-97C7.2,93.5,63.6,27.7,137.3,23.3
		c34.9-2.1,68.7,9.7,95.3,33.3c27.9,24.7,44.4,59.2,46.7,97C283.7,229.9,227.4,295.6,153.6,300.1z"/>
	<path class="st2" d="M296.1,150.9c-2.4-41.2-20.4-78.7-50.8-105.6C216.4,19.7,179.6,6.8,141.6,9.1v0.7V9.1
		C61.4,14,0,85.5,4.9,168.5c2.4,41.2,20.4,78.7,50.8,105.6c26.7,23.7,60.1,36.5,95,36.5c2.9,0,5.8-0.1,8.7-0.3
		C239.6,305.4,300.9,233.9,296.1,150.9z M159.3,308.9c-37.6,2.3-74-10.5-102.6-35.8c-30-26.6-47.9-63.8-50.3-104.6
		C1.5,86.2,62.2,15.4,141.7,10.5c37.6-2.3,74,10.5,102.6,35.8c30,26.6,47.9,63.8,50.3,104.6C299.5,233.2,238.7,304.1,159.3,308.9z"
		/>
	<path class="st2" d="M130.4,277.5c-3,0.4-5.1,3.4-4.6,6.6c0.4,3.2,3.2,5.4,6.2,5s5.1-3.4,4.6-6.6
		C136.1,279.3,133.4,277,130.4,277.5z"/>
	<path class="st2" d="M164.8,158.9c-1.4-9.3-6.1-17.6-13.2-23.2c-7.1-5.7-15.8-8.1-24.4-6.7c-17.8,2.8-29.8,20.7-26.8,39.9
		c1.4,9.3,6.1,17.6,13.2,23.2c5.8,4.6,12.7,7.1,19.7,7.1c1.6,0,3.1-0.1,4.7-0.4C155.8,196.1,167.8,178.2,164.8,158.9z M137.8,197.4
		c-8.2,1.3-16.5-1-23.3-6.4s-11.3-13.4-12.7-22.3c-2.9-18.5,8.6-35.7,25.6-38.3c8.2-1.3,16.5,1,23.3,6.4s11.3,13.4,12.7,22.3
		C166.3,177.6,154.8,194.8,137.8,197.4z"/>
	<path class="ledpulse st2" d="M123.9,125.7c0.8,0.7,1.9,1,2.9,0.8c2.1-0.3,3.5-2.5,3.2-4.8c-0.2-1.1-0.7-2.1-1.6-2.8c-0.8-0.7-1.9-1-2.9-0.8
		c-2.1,0.3-3.5,2.5-3.2,4.8C122.5,124.1,123.1,125.1,123.9,125.7z"/>
	<path class="st1" d="M123.6,126.2c0.8,0.6,1.7,1,2.7,1c0.2,0,0.4,0,0.6,0c2.4-0.4,4.1-2.8,3.7-5.4c-0.2-1.3-0.8-2.4-1.8-3.1
		c-1-0.8-2.1-1.1-3.3-0.9c-2.4,0.4-4.1,2.8-3.7,5.4C122,124.3,122.6,125.4,123.6,126.2z M125.5,117.9c2.3-0.4,4.4,1.4,4.8,3.8
		c0.4,2.5-1.1,4.7-3.4,5.1c-2.3,0.4-4.4-1.4-4.8-3.8C121.7,120.5,123.2,118.2,125.5,117.9z"/>
	<path class="st1" d="M126.8,126.8c2.3-0.4,3.8-2.6,3.4-5.1c-0.4-2.5-2.5-4.2-4.8-3.8c-2.3,0.4-3.8,2.6-3.4,5.1
		C122.4,125.5,124.6,127.2,126.8,126.8z M125.5,118.2c1-0.2,2,0.1,2.9,0.8c0.9,0.7,1.4,1.7,1.6,2.8c0.4,2.3-1.1,4.4-3.2,4.8
		c-1,0.2-2-0.1-2.9-0.8c-0.8-0.7-1.4-1.7-1.6-2.8C122,120.6,123.4,118.5,125.5,118.2z"/>
	<path class="ledpulse st2" d="M99,141.9c0.8,0.7,1.9,1,2.9,0.8s1.9-0.7,2.5-1.6c1.3-1.9,0.8-4.5-0.9-5.9c-0.8-0.7-1.9-1-2.9-0.8
		s-1.9,0.7-2.5,1.6C96.8,137.9,97.2,140.5,99,141.9z"/>
	<path class="st1" d="M98.6,142.4c0.8,0.6,1.7,1,2.7,1c0.2,0,0.4,0,0.6,0c1.2-0.2,2.2-0.8,2.9-1.9c1.4-2.1,0.9-5.1-1-6.7
		c-1-0.8-2.2-1.1-3.3-0.9c-1.2,0.2-2.2,0.8-2.9,1.9C96.2,137.8,96.6,140.8,98.6,142.4z M97.8,135.9c1.3-2,3.9-2.4,5.8-0.9
		s2.3,4.3,1,6.3s-3.9,2.4-5.8,0.9S96.5,137.9,97.8,135.9z"/>
	<path class="st1" d="M98.8,142.2c1.9,1.5,4.5,1.1,5.8-0.9s0.9-4.8-1-6.3s-4.5-1.1-5.8,0.9S96.9,140.7,98.8,142.2z M98.1,136
		c0.6-0.9,1.5-1.5,2.5-1.6c1-0.2,2,0.1,2.9,0.8c1.8,1.4,2.2,4.1,0.9,5.9c-0.6,0.9-1.5,1.5-2.5,1.6c-1,0.2-2-0.1-2.9-0.8
		C97.2,140.5,96.8,137.9,98.1,136z"/>
	<path class="ledpulse st2" d="M94.5,165.2c-0.2,0-0.4,0-0.5,0c-2.1,0.3-3.5,2.5-3.2,4.8c0.2,1.1,0.7,2.1,1.6,2.8c0.8,0.7,1.9,1,2.9,0.8
		c2.1-0.3,3.5-2.5,3.2-4.8C98.1,166.7,96.4,165.2,94.5,165.2z"/>
	<path class="st1" d="M93.9,164.7c-2.4,0.4-4.1,2.8-3.7,5.4c0.2,1.3,0.8,2.4,1.8,3.1c0.8,0.6,1.7,1,2.7,1c0.2,0,0.4,0,0.6,0
		c2.4-0.4,4.1-2.8,3.7-5.4C98.6,166.1,96.3,164.3,93.9,164.7z M95.3,173.8c-2.3,0.4-4.4-1.4-4.8-3.8c-0.4-2.5,1.1-4.7,3.4-5.1
		c2.3-0.4,4.4,1.4,4.8,3.8C99.1,171.2,97.6,173.5,95.3,173.8z"/>
	<path class="st1" d="M93.9,164.9c-2.3,0.4-3.8,2.6-3.4,5.1s2.5,4.2,4.8,3.8s3.8-2.6,3.4-5.1C98.3,166.3,96.2,164.6,93.9,164.9z
		 M95.2,173.6c-1,0.2-2-0.1-2.9-0.8c-0.8-0.7-1.4-1.7-1.6-2.8c-0.4-2.3,1.1-4.4,3.2-4.8c0.2,0,0.4,0,0.5,0c1.9,0,3.6,1.5,3.9,3.6
		C98.8,171.1,97.4,173.2,95.2,173.6z"/>
	<path class="ledpulse st2" d="M112.5,193.4c-0.7-0.6-1.5-0.8-2.3-0.8c-0.2,0-0.4,0-0.6,0c-1,0.2-1.9,0.7-2.5,1.6c-1.3,1.9-0.8,4.5,0.9,5.9
		c0.8,0.7,1.9,1,2.9,0.8s1.9-0.7,2.5-1.6C114.6,197.5,114.2,194.8,112.5,193.4z"/>
	<path class="st1" d="M112.8,193c-1-0.8-2.1-1.1-3.3-0.9c-1.2,0.2-2.2,0.8-2.9,1.9c-1.4,2.1-0.9,5.1,1,6.7c0.8,0.6,1.7,1,2.7,1
		c0.2,0,0.4,0,0.6,0c1.2-0.2,2.2-0.8,2.9-1.9C115.3,197.5,114.8,194.5,112.8,193z M113.6,199.5c-1.3,2-3.9,2.4-5.8,0.9
		s-2.3-4.3-1-6.3s3.9-2.4,5.8-0.9S114.9,197.5,113.6,199.5z"/>
	<path class="st1" d="M112.6,193.2c-1.9-1.5-4.5-1.1-5.8,0.9s-0.9,4.8,1,6.3s4.5,1.1,5.8-0.9S114.5,194.7,112.6,193.2z M113.4,199.3
		c-0.6,0.9-1.5,1.5-2.5,1.6c-1,0.2-2-0.1-2.9-0.8c-1.8-1.4-2.2-4.1-0.9-5.9c0.6-0.9,1.5-1.5,2.5-1.6c0.2,0,0.4,0,0.6,0
		c0.8,0,1.6,0.3,2.3,0.8C114.2,194.8,114.6,197.5,113.4,199.3z"/>
	<path class="ledpulse st2" d="M141.1,201.3c-0.7-0.5-1.5-0.8-2.3-0.8c-0.2,0-0.4,0-0.6,0c-2.1,0.3-3.5,2.5-3.2,4.8c0.2,1.1,0.7,2.1,1.6,2.8
		c0.8,0.7,1.9,1,2.9,0.8c2.1-0.3,3.5-2.5,3.2-4.8C142.5,203,142,202,141.1,201.3z"/>
	<path class="st1" d="M141.5,200.9c-1-0.8-2.1-1.1-3.3-0.9c-2.4,0.4-4.1,2.8-3.7,5.4c0.2,1.3,0.8,2.4,1.8,3.1c0.8,0.6,1.7,1,2.7,1
		c0.2,0,0.4,0,0.6,0c2.4-0.4,4.1-2.8,3.7-5.4C143.1,202.7,142.4,201.6,141.5,200.9z M139.6,209.1c-2.3,0.4-4.4-1.4-4.8-3.8
		c-0.4-2.5,1.1-4.7,3.4-5.1c2.3-0.4,4.4,1.4,4.8,3.8C143.4,206.5,141.9,208.8,139.6,209.1z"/>
	<path class="st1" d="M138.2,200.2c-2.3,0.4-3.8,2.6-3.4,5.1c0.4,2.5,2.5,4.2,4.8,3.8s3.8-2.6,3.4-5.1
		C142.6,201.6,140.5,199.9,138.2,200.2z M139.5,208.9c-1,0.2-2-0.1-2.9-0.8c-0.8-0.7-1.4-1.7-1.6-2.8c-0.4-2.3,1.1-4.4,3.2-4.8
		c0.2,0,0.4,0,0.6,0c0.8,0,1.6,0.3,2.3,0.8c0.8,0.7,1.4,1.7,1.6,2.8C143.1,206.4,141.6,208.5,139.5,208.9z"/>
	<path class="ledpulse st2" d="M166.1,185.1c-0.7-0.6-1.5-0.8-2.3-0.8c-0.2,0-0.4,0-0.6,0c-1,0.2-1.9,0.7-2.5,1.6c-1.3,1.9-0.8,4.5,0.9,5.9
		c0.8,0.7,1.9,1,2.9,0.8s1.9-0.7,2.5-1.6C168.3,189.2,167.8,186.5,166.1,185.1z"/>
	<path class="st1" d="M166.4,184.7c-1-0.8-2.2-1.1-3.3-0.9c-1.2,0.2-2.2,0.8-2.9,1.9c-1.4,2.1-0.9,5.1,1,6.7c0.8,0.6,1.7,1,2.7,1
		c0.2,0,0.4,0,0.6,0c1.2-0.2,2.2-0.8,2.9-1.9C168.9,189.2,168.4,186.2,166.4,184.7z M167.2,191.2c-1.3,2-3.9,2.4-5.8,0.9
		c-1.9-1.5-2.3-4.3-1-6.3s3.9-2.4,5.8-0.9S168.6,189.2,167.2,191.2z"/>
	<path class="st1" d="M166.3,184.9c-1.9-1.5-4.5-1.1-5.8,0.9s-0.9,4.8,1,6.3s4.5,1.1,5.8-0.9S168.1,186.4,166.3,184.9z M167,191
		c-0.6,0.9-1.5,1.5-2.5,1.6c-1,0.2-2-0.1-2.9-0.8c-1.8-1.4-2.2-4.1-0.9-5.9c0.6-0.9,1.5-1.5,2.5-1.6c0.2,0,0.4,0,0.6,0
		c0.8,0,1.6,0.3,2.3,0.8C167.8,186.5,168.3,189.2,167,191z"/>
	<path class="ledpulse st2" d="M172.7,154.3c-0.7-0.6-1.5-0.8-2.3-0.8c-0.2,0-0.4,0-0.6,0c-2.1,0.3-3.5,2.5-3.2,4.8c0.4,2.3,2.4,3.9,4.5,3.6
		c2.1-0.3,3.5-2.5,3.2-4.8C174.1,155.9,173.5,154.9,172.7,154.3z"/>
	<path class="st1" d="M173,153.8c-1-0.8-2.1-1.1-3.3-0.9c-2.4,0.4-4.1,2.8-3.7,5.4c0.4,2.4,2.3,4.1,4.5,4.1c0.2,0,0.4,0,0.6,0
		c2.4-0.4,4.1-2.8,3.7-5.4C174.6,155.7,174,154.6,173,153.8z M171.1,162.1c-2.3,0.4-4.4-1.4-4.8-3.8c-0.4-2.5,1.1-4.7,3.4-5.1
		c2.3-0.4,4.4,1.4,4.8,3.8C174.9,159.5,173.4,161.8,171.1,162.1z"/>
	<path class="st1" d="M169.8,153.2c-2.3,0.4-3.8,2.6-3.4,5.1c0.4,2.5,2.5,4.2,4.8,3.8s3.8-2.6,3.4-5.1
		C174.2,154.6,172,152.8,169.8,153.2z M171.1,161.8c-2.1,0.3-4.1-1.3-4.5-3.6s1.1-4.4,3.2-4.8c0.2,0,0.4,0,0.6,0
		c0.8,0,1.6,0.3,2.3,0.8c0.8,0.7,1.4,1.7,1.6,2.8C174.6,159.4,173.2,161.5,171.1,161.8z"/>
	<path class="ledpulse st2" d="M152.6,133.6c0.8,0.7,1.9,1,2.9,0.8s1.9-0.7,2.5-1.6c1.3-1.9,0.8-4.5-0.9-5.9c-0.7-0.6-1.5-0.8-2.3-0.8
		c-0.2,0-0.4,0-0.6,0c-1,0.2-1.9,0.7-2.5,1.6C150.4,129.6,150.8,132.2,152.6,133.6z"/>
	<path class="st1" d="M152.2,134.1c0.8,0.6,1.7,1,2.7,1c0.2,0,0.4,0,0.6,0c1.2-0.2,2.2-0.8,2.9-1.9c1.4-2.1,0.9-5.1-1-6.7
		c-1-0.8-2.1-1.1-3.3-0.9s-2.2,0.8-2.9,1.9C149.8,129.5,150.3,132.5,152.2,134.1z M151.5,127.6c1.3-2,3.9-2.4,5.8-0.9
		c1.9,1.5,2.3,4.3,1,6.3s-3.9,2.4-5.8,0.9C150.6,132.4,150.1,129.5,151.5,127.6z"/>
	<path class="st1" d="M152.4,133.9c1.9,1.5,4.5,1.1,5.8-0.9s0.9-4.8-1-6.3s-4.5-1.1-5.8,0.9C150.1,129.5,150.6,132.4,152.4,133.9z
		 M151.7,127.7c0.6-0.9,1.5-1.5,2.5-1.6c0.2,0,0.4,0,0.6,0c0.8,0,1.6,0.3,2.3,0.8c1.8,1.4,2.2,4.1,0.9,5.9c-0.6,0.9-1.5,1.5-2.5,1.6
		c-1,0.2-2-0.1-2.9-0.8C150.8,132.2,150.4,129.6,151.7,127.7z"/>
	<path class="st2" d="M136.2,186.8c-8.3,1.3-16.7-2.8-21.4-10.5c-3.6,1.2-6.5,1.9-8.7,2c6.1,12.5,18.7,19.6,31.5,17.6
		s22.7-12.5,24.7-26.3c-2.1,0.5-5.1,0.8-8.9,0.7C151.2,179.1,144.4,185.6,136.2,186.8z"/>
	<path d="M153.2,170.1h-0.1v0.1c-2.1,8.7-8.8,15.1-17,16.3c-8.2,1.3-16.5-2.8-21.1-10.4l-0.1-0.1h-0.1c-3.8,1.3-6.8,2-8.9,2h-0.2
		l0.1,0.2c5.4,11.3,16.1,18.3,27.5,18.3c1.4,0,2.9-0.1,4.3-0.3c13-2,23-12.8,24.9-26.8v-0.2l-0.2,0.1
		C160.3,169.9,157.2,170.2,153.2,170.1z M137.6,196.2c-13.2,2-25.8-5.6-31.7-17.9c2.2-0.1,5.2-0.8,9-2.1
		c4.5,7.4,12.7,11.8,21.3,10.5c8.5-1.3,15-8,17.1-16.5c4,0.1,7.1-0.2,9.2-0.8C160.6,183,150.8,194.1,137.6,196.2z"/>
	<path d="M153.2,170.3c-2.1,8.5-8.6,15.1-17.1,16.5c-8.5,1.3-16.8-3.1-21.3-10.5c-3.8,1.3-6.8,2-9,2.1c5.9,12.3,18.5,20,31.7,17.9
		c13.2-2,23-13.1,24.8-26.7C160.3,170.1,157.2,170.3,153.2,170.3z M162.3,169.7c-2,13.8-11.9,24.3-24.7,26.3s-25.4-5.1-31.5-17.6
		c2.2-0.1,5.1-0.8,8.7-2c4.7,7.7,13.1,11.8,21.4,10.5s15-7.7,17.2-16.4C157.2,170.5,160.2,170.2,162.3,169.7z"/>
</g>
<g>
	<path class="st1" d="M143.4,2.3C59.4,7.3-4.8,82.2,0.3,169.1c2.5,43.1,21.4,82.3,53.1,110.5c27.9,24.8,62.9,38.2,99.5,38.2
		c3,0,6-0.1,9.1-0.3c27.1-1.6,52.2-10.6,73.5-24.8v0.1l0,0l0,0L258,278l19.7-13l0.1-0.1c38.5-30.1,59.7-76.8,56.7-124.8
		C329.4,58.2,256.9-4.5,172.9,0.3 M159.3,310.3c-2.9,0.2-5.8,0.3-8.7,0.3c-34.9,0-68.3-12.8-95-36.5C25.4,247.2,7.3,209.7,4.9,168.5
		C0,85.5,61.4,14,141.6,9.1c38-2.3,74.8,10.6,103.7,36.2c30.3,26.9,48.3,64.4,50.8,105.6C300.9,233.9,239.6,305.4,159.3,310.3z
		 M312.7,220.5L290.6,232c-0.5,1.1-1.1,2.2-1.6,3.2l21.7-11.3c-2.6,4.2-5.3,8.2-8.3,12.1l-20,10.8c-0.8,1.2-1.6,2.5-2.4,3.7l19-10.3
		c-6.7,8.1-14.3,15.6-22.8,22.2l-18.5,12.2c9.5-9.3,17.6-19.7,24.4-30.9c0.2-0.4,0.4-0.7,0.7-1.1c0.4-0.6,0.8-1.3,1.1-1.9
		c13.8-23.8,21.6-51.6,21.4-81.1c0-0.1,0-0.2,0-0.4c0-1.2,0-2.4-0.1-3.7c0-0.2,0-0.5,0-0.7c0-1.4-0.1-2.8-0.2-4.3
		c-0.1-1.3-0.2-2.6-0.3-3.8c-0.1-0.7-0.1-1.5-0.2-2.2c0-0.5-0.1-1-0.1-1.5c-0.1-1-0.2-2.1-0.4-3.1c0-0.2,0-0.3-0.1-0.5
		c-4.5-35.5-20.3-67.9-45.3-92.9c-0.1-0.1-0.2-0.2-0.3-0.3l-0.1-0.1c-0.5-0.5-1-1-1.5-1.4c-0.4-0.4-0.9-0.9-1.4-1.3
		c-0.4-0.3-0.7-0.7-1.1-1c-0.7-0.7-1.4-1.3-2.1-1.9c-0.1-0.1-0.3-0.2-0.4-0.3l-0.1-0.1c-1.8-1.6-3.6-3.1-5.5-4.7
		c-0.2-0.2-0.4-0.3-0.6-0.5c-0.7-0.6-1.4-1.1-2.2-1.7c-0.3-0.2-0.6-0.4-0.8-0.6c-0.6-0.5-1.3-1-1.9-1.4c-0.3-0.2-0.7-0.5-1-0.7
		c-0.6-0.4-1.2-0.9-1.8-1.3c-0.4-0.2-0.7-0.5-1.1-0.7c-0.6-0.4-1.2-0.8-1.8-1.2c-0.9-0.6-1.8-1.2-2.8-1.8c-0.3-0.2-0.6-0.4-0.8-0.5
		c-0.7-0.4-1.4-0.9-2.1-1.3c-0.2-0.1-0.4-0.3-0.7-0.4c-0.7-0.4-1.5-0.9-2.3-1.3c-0.1-0.1-0.3-0.2-0.4-0.2
		c-16-9.1-33.3-15.2-51.4-17.9c-0.2,0-0.3,0-0.5-0.1c-0.8-0.1-1.7-0.2-2.5-0.4c-0.1,0-0.2,0-0.3,0l1.7-0.1
		c7.6-0.4,15.2-0.3,22.6,0.4l-10,0.5c2.4,0.5,4.8,1.1,7.1,1.8l15-0.7c2.3,0.4,4.5,0.8,6.8,1.3l-16.8,0.9c1.8,0.6,3.6,1.2,5.4,1.8
		l18.6-0.9c3.6,1,7.2,2.1,10.7,3.3c-6.7,0.5-13.3,0.9-20,1.3c1.4,0.6,2.8,1.2,4.2,1.9l20.9-1.3c-0.3-0.1-0.6-0.2-0.9-0.4
		c52.7,20.2,91.4,68.7,95.1,127.2C333.5,168.5,326.7,196.4,312.7,220.5z"/>
	<path class="st1" d="M271.8,34.6L251,37c0.7,0.6,1.4,1.3,2.2,1.9l20.9-2.4C273.3,35.9,272.6,35.3,271.8,34.6z"/>
	<path class="st1" d="M283.9,45.8l-20.7,2.9c0.6,0.6,1.2,1.3,1.8,1.9l20.7-2.9C285.1,47.1,284.5,46.5,283.9,45.8z"/>
	<path class="st1" d="M306.7,171.4l20.8-8.4c0-0.8,0.1-1.6,0.1-2.3l-20.7,8.4C306.8,169.8,306.8,170.6,306.7,171.4z"/>
	<path class="st1" d="M258.7,25l-20.9,1.9c0.9,0.6,1.8,1.2,2.7,1.9l21-1.9C260.6,26.2,259.7,25.6,258.7,25z"/>
	<path class="st1" d="M245.9,17.4L225,18.9c1.1,0.6,2.2,1.2,3.3,1.9l21-1.6C248.2,18.6,247,18,245.9,17.4z"/>
	<path class="st1" d="M307,154.8l20.5-7.6c0-0.7-0.1-1.5-0.1-2.2l-20.5,7.6C306.9,153.3,307,154,307,154.8z"/>
	<path class="st1" d="M305.6,138.5l20.4-6.8c-0.1-0.7-0.2-1.4-0.3-2.1l-20.3,6.8C305.5,137,305.5,137.8,305.6,138.5z"/>
	<path class="st1" d="M294.7,58.1l-20.5,3.4c0.5,0.6,1,1.3,1.4,1.9l20.6-3.4C295.7,59.4,295.2,58.8,294.7,58.1z"/>
	<path class="st1" d="M296.2,219.1l21.9-10.8c0.4-1,0.8-2.1,1.1-3.2c-7.4,3.8-14.7,7.4-21.9,11C297,217.1,296.6,218.1,296.2,219.1z"
		/>
	<path class="st1" d="M300.9,205.2l21.5-10.1c0.2-0.9,0.5-1.8,0.7-2.7l-21.4,10.1C301.4,203.5,301.1,204.3,300.9,205.2z"/>
	<path class="st1" d="M304.7,188.5l21.1-9.2c0.1-0.8,0.3-1.7,0.4-2.5l-21,9.2C305,186.8,304.8,187.6,304.7,188.5z"/>
	<path class="st1" d="M322.4,114l-20.3,6c0.2,0.7,0.3,1.4,0.5,2.1l20.3-6.1C322.8,115.4,322.6,114.7,322.4,114z"/>
	<path class="st1" d="M311,83.9l-20.3,4.6c0.3,0.7,0.6,1.3,0.9,2l20.3-4.6C311.6,85.2,311.3,84.5,311,83.9z"/>
	<path class="st1" d="M304.2,71.8l-20.4,4c0.4,0.6,0.8,1.3,1.1,1.9l20.4-4.1C305,73.1,304.6,72.4,304.2,71.8z"/>
	<path class="st1" d="M317.4,98.5c-6.8,1.8-13.5,3.6-20.2,5.4c0.2,0.7,0.5,1.3,0.7,2l20.3-5.3C317.9,99.9,317.7,99.2,317.4,98.5z"/>
</g>
</svg>
