<?xml version="1.0" encoding="utf-8"?>
<!-- Generator: Adobe Illustrator 21.0.0, SVG Export Plug-In . SVG Version: 6.00 Build 0)  -->
<svg version="1.1" id="Layer_1" xmlns="http://www.w3.org/2000/svg" xmlns:xlink="http://www.w3.org/1999/xlink" x="0px" y="0px"
	 viewBox="0 0 856.4 1417.3" style="enable-background:new 0 0 856.4 1417.3;" xml:space="preserve">
<style type="text/css">
	.pair {
		animation: pair 4s infinite;
	}
	.white {
		fill: rgb(255,255,255);
	}
	
	@keyframes pair {
		0%, 20%, 80%, 100% {
			fill: rgba(255,255,255,0);
		}
		40%, 60% {
			fill: #0078CC;
		}
	}
	
	.move {
		animation: move 4s infinite;
	}
	
	@keyframes move {
		0%, 20%, 80%, 100% {
			transform: translate3d(0px, 0px, 0px);
	        animation-timing-function: ease-in;
		}
	    40%, 60% {
	        transform: translate3d(0px, 80px, 0px);
	        animation-timing-function: ease-out;
	    }
	}
</style>
<g>
	<path d="M840,996c0.1-23.8-2.2-47-6.6-69.5l-25.7-194.7l-0.1-0.8l-0.3-0.7c-0.4-1.2-4.8-13.5-14.1-32.4
		c-48.9-129.4-139.7-192.5-209.8-223c-82.3-35.7-155.1-35.3-155.8-35.3c-7.6,0-77.1,1.5-155.2,35.3
		c-70.2,30.4-160.9,93.5-209.8,222.8c-9.3,19-13.7,31.4-14.1,32.6l-0.3,0.7L20.4,941.5c-0.7,4.4-1.2,8.7-1.7,13.1l-0.8,6.2l0.2,0
		c-1,10.6-1.5,21.3-1.6,32.1c0,4.8,0.1,9.7,0.2,14.5c3.8,103,50.7,201.4,124.1,274.2c73.5,72.8,173.9,120.2,284.7,120.6
		c0.4,0,0.8,0,1.2,0c110.6,0,211.5-46.4,285.9-118.4c71.7-69.5,118.9-162.9,126.2-262.4c1.4-5.8,1-16.1,1.1-19.3
		C839.9,1000.1,840,998,840,996z M275.7,483.3c80.6-35,151.8-34.7,152.5-34.7c6.3,0.1,74.5,1.2,151.6,34.6
		c46.1,20,101.4,54.5,147.2,113.5c-0.9-1.1-1.9-2.2-2.9-3.3c-54.2-62.6-149.7-137.1-296.5-137.1c-146.5,0.2-241.7,74.6-295.9,137.1
		c-0.9,1-1.7,2-2.5,3C174.8,537.7,229.7,503.3,275.7,483.3z M63.1,734.5c2.6-7.2,26.5-69.5,80-131.2
		c75.9-87.5,171.8-131.9,285.1-131.9c112.9,0.2,208.5,44.4,284.2,131.5c53.7,61.8,77.7,124.5,80.4,131.7l14.9,112.8
		c-10.5-22.7-23.3-44.3-38.2-64.4c1.5,0,2.7-0.3,2.7-0.3c3.9-2.5,4.9-7.7,2.3-11.4c-38.6-54-87.3-95.7-145.9-124.4
		C567.5,617,499,601.3,429.8,600.1h-0.4h-0.1c-69.6,0.6-138,16-199.1,45.5c-58.6,28.1-107.4,69.4-146.8,123
		c-2.7,3.7-1.7,8.9,2.1,11.4l1.6,2c-15.3,20.8-28.4,43-39.1,66.5L63.1,734.5z M823.4,1003.2c-0.6,5.5-0.5,12.2-0.7,14.6
		c-6.4,96.3-52,187.5-121.7,255.1c-71.7,69.4-168.5,113.8-274.2,113.7c-0.4,0-0.8,0-1.2,0c-105.8-0.4-202.1-45.7-272.9-115.8
		S36.9,1105.8,33.2,1007c-0.2-4.7-0.2-9.3-0.2-13.9c0.4-101.9,46-192.6,118.1-257.8c72.2-65.2,170.9-104.8,277.2-104.4
		c0.4,0,0.8,0,1.2,0c106.1,0.7,204.8,40.8,276.9,106.4S823.8,893.7,823.5,996c0,2,0,4-0.1,6.1
		C823.4,1002.5,823.4,1002.8,823.4,1003.2z"/>
	<path d="M396,654.2c-6-4.7-13.6-7.4-21.2-7.4c-1.1,0-2.3,0.1-3.4,0.2C191.8,666.4,46.6,816.5,45.9,993.9c0,4.1,0,8.2,0.2,12.3
		c3,87.1,40,171.8,98.5,237.6s138.7,112.7,228.2,123.6c1.1,0.1,2.2,0.2,3.3,0.2c7.5,0,14.7-2.9,20.2-7.6c5.5-4.8,9.3-11.6,9.3-19.3
		c0-0.3,0-0.7,0-1c0.2-221.5,0.4-443.1,0.6-664.6h0c0-0.3,0-0.7,0-1C406.2,665.8,402,658.8,396,654.2z M150.9,1238.7
		c-57.4-64.5-93.6-147.7-96.5-232.8c-0.1-4-0.2-8-0.2-12C54.8,821.5,195.6,675,369.9,655.1c0.5,234.7,0.9,469.5,1.4,704.2
		C285.2,1348.1,207.6,1302.6,150.9,1238.7z M398,674.9L398,674.9L398,674.9c-0.2,221.5-0.4,443.1-0.6,664.6v0.1v0.1
		c0,0.3,0,0.6,0,0.8c0,5.3-2.6,10.1-6.6,13.6s-9.5,5.6-14.7,5.6c-0.2,0-0.5,0-0.7,0c-0.5-235-0.9-470-1.4-705c0.3,0,0.5,0,0.8,0
		c5.5,0,11.6,2.1,16,5.6c4.4,3.6,7.2,8.3,7.2,13.9V674.9z"/>
	<path d="M484.6,647.5c-1.5-0.2-3-0.4-4.5-0.4c-8,0-15.5,3.2-21,8.3s-9.2,12-9.7,19.6v0.1v0h0c-1.3,221.5-2.6,443.1-3.9,664.6v0.1
		v0.1c0.3,7.2,3.5,14.1,8.5,19.3s12,8.8,20,8.9c1.4,0,2.9-0.1,4.3-0.3c89.1-14.2,169.5-60.5,228.6-124.9
		c59-64.4,96.8-146.9,100.3-234c0.2-4.1,0.3-8.1,0.3-12.1c0.3-88.6-35.9-169-94.4-230.6C654.6,704.5,573.7,661.5,484.6,647.5z
		 M476.4,1360c-0.8,0.1-1.6,0.1-2.3,0.1c-5.3,0-10.2-2.4-14-6.3c-3.7-3.9-6.1-9.2-6.3-14.3c1.3-221.4,2.6-443,3.9-664.4h-0.1
		c0.4-5.3,3-10.4,7.2-14.2c4.1-3.8,9.6-6.1,15.3-6.1c0.8,0,1.7,0.1,2.7,0.2C480.7,890,478.6,1125,476.4,1360z M799.1,1008.5
		c-3.5,85.1-40.4,166-98.3,229.1c-57.1,62.2-134.6,107.1-220.3,121.7c2.1-234.5,4.1-469.1,6.3-703.6
		c85.9,14.3,163.7,56.1,220.2,115.7c57.3,60.4,92.6,138.8,92.3,225.3C799.4,1000.6,799.3,1004.6,799.1,1008.5z"/>
	<g id="XMLID_1_">
		<path d="M428.9,575.5c7.4,0,13,3.3,13,7.6c0,4.3-5.6,7.6-13,7.6s-13-3.3-13-7.6C415.9,578.8,421.5,575.5,428.9,575.5z
			 M428.9,586.1c4,0,6.9-1.2,8-2.3c-1.6-1.1-4.5-2-8-2c-3.6,0-6.5,0.9-8,2C421.9,584.9,424.8,586.1,428.9,586.1z"/>
	</g>
</g>
<g>
	<g>
		<path class="move white" d="M428.9,504.6c-3.4,0-6.2-2.8-6.2-6.2V372.8l-1.7-0.2c-29.9-4-52.5-29.7-52.5-59.9V78.4
			c0-33.3,27.1-60.4,60.4-60.4s60.4,27.1,60.4,60.4v234.3c0,30.2-22.6,55.9-52.5,59.9l-1.7,0.2v125.5
			C435.1,501.8,432.3,504.6,428.9,504.6z M428.9,40.3c-21,0-38.1,17.1-38.1,38.1v234.3c0,21,17.1,38.1,38.1,38.1
			s38.1-17.1,38.1-38.1V78.4C467,57.4,449.9,40.3,428.9,40.3z"/>
	</g>
	<g>
		<path class="move" d="M428.9,20.4c32,0,58,26,58,58v234.3c0,29-21.7,53.7-50.4,57.5l-3.8,0.5v127.6c0,2.1-1.7,3.8-3.8,3.8s-3.8-1.7-3.8-3.8
			V370.7l-3.8-0.5c-28.7-3.8-50.4-28.5-50.4-57.5V78.4C370.9,46.4,396.9,20.4,428.9,20.4 M428.9,353.2c22.3,0,40.5-18.2,40.5-40.5
			V78.4c0-22.3-18.2-40.5-40.5-40.5s-40.5,18.2-40.5,40.5v234.3C388.4,335.1,406.6,353.2,428.9,353.2 M428.9,15.6
			c-34.6,0-62.8,28.2-62.8,62.8v234.3c0,31.3,23.3,58,54.2,62.2v123.4c0,4.7,3.9,8.6,8.6,8.6c4.7,0,8.6-3.9,8.6-8.6V374.9
			c30.9-4.3,54.2-30.9,54.2-62.2V78.4C491.7,43.8,463.5,15.6,428.9,15.6L428.9,15.6z M428.9,348.5c-19.7,0-35.7-16-35.7-35.7V78.4
			c0-19.7,16-35.7,35.7-35.7s35.7,16,35.7,35.7v234.3C464.6,332.4,448.6,348.5,428.9,348.5L428.9,348.5z"/>
	</g>
</g>
<path class="pair" d="M436.9,583.8c-1.1,1-4,2.3-8,2.3c-4.1,0-7-1.2-8-2.3c1.6-1.1,4.5-2,8-2C432.4,581.8,435.3,582.7,436.9,583.8z"
	/>
</svg>
